<svg width="22" height="19" viewBox="0 0 22 19" fill="none" xmlns="http://www.w3.org/2000/svg">
<path d="M9.0791 18.7334C10.292 18.7334 11.4697 18.4873 12.5508 18.0303C12.1377 17.582 11.8213 17.0547 11.5928 16.4922C10.8105 16.7822 9.9668 16.9492 9.0791 16.9492C5.03613 16.9492 1.79297 13.6973 1.79297 9.6543C1.79297 5.61133 5.02734 2.36816 9.07031 2.36816C12.7266 2.36816 15.7412 5.04004 16.2686 8.54688C16.8135 8.45898 17.5342 8.48535 18.0879 8.62598C17.5693 4.12598 13.6934 0.575195 9.07031 0.575195C4.0957 0.575195 0 4.68848 0 9.6543C0 14.6289 4.10449 18.7334 9.0791 18.7334ZM4.63184 10.7441H9.07031C9.46582 10.7441 9.76465 10.4365 9.76465 10.0498V4.28418C9.76465 3.89746 9.46582 3.58984 9.07031 3.58984C8.68359 3.58984 8.37598 3.89746 8.37598 4.28418V9.35547H4.63184C4.23633 9.35547 3.9375 9.6543 3.9375 10.0498C3.9375 10.4365 4.23633 10.7441 4.63184 10.7441ZM16.875 18.7773C19.3359 18.7773 21.4014 16.7207 21.4014 14.251C21.4014 11.7725 19.3535 9.7334 16.875 9.7334C14.3965 9.7334 12.3486 11.7725 12.3486 14.251C12.3486 16.7383 14.3965 18.7773 16.875 18.7773ZM16.3477 16.9229C16.1807 16.9229 15.9785 16.8525 15.8467 16.7119L14.1943 14.9014C14.1064 14.8135 14.0449 14.6377 14.0449 14.4883C14.0449 14.1104 14.335 13.8643 14.6689 13.8643C14.8711 13.8643 15.0293 13.9434 15.1436 14.0664L16.3125 15.3496L18.5537 12.2295C18.6768 12.0713 18.8613 11.957 19.0811 11.957C19.4238 11.957 19.7139 12.2295 19.7139 12.5811C19.7139 12.6865 19.6699 12.8271 19.582 12.9414L16.8662 16.6855C16.7607 16.8262 16.5586 16.9229 16.3477 16.9229Z" fill="#1C1C1E"/>
</svg>
