<svg width="23" height="24" viewBox="0 0 23 24" fill="none" xmlns="http://www.w3.org/2000/svg">
<path d="M8.08639 23.5H2.05981C1.50753 23.5 1.05981 23.0523 1.05981 22.5V7.59458C1.05981 7.22813 1.26024 6.89104 1.58219 6.71601L11.6167 1.26074C11.9157 1.09823 12.2767 1.09886 12.5751 1.26242L21.6103 6.21533C21.9305 6.39087 22.1296 6.72702 22.1296 7.09222V22.5C22.1296 23.0523 21.6819 23.5 21.1296 23.5H15.103C14.5507 23.5 14.103 23.0523 14.103 22.5V16.5C14.103 15.9477 13.6553 15.5 13.103 15.5H10.0864C9.53411 15.5 9.08639 15.9477 9.08639 16.5V22.5C9.08639 23.0523 8.63868 23.5 8.08639 23.5Z" fill="#FFF8F8" stroke="white"/>
</svg>
