<svg width="29" height="36" viewBox="0 0 29 36" fill="none" xmlns="http://www.w3.org/2000/svg">
<path d="M14.5 17.9999C12.5291 17.9999 10.9166 16.3874 10.9166 14.4166C10.9166 12.4458 12.5291 10.8333 14.5 10.8333C16.4708 10.8333 18.0833 12.4458 18.0833 14.4166C18.0833 16.3874 16.4708 17.9999 14.5 17.9999ZM25.25 14.7749C25.25 8.27117 20.502 3.66659 14.5 3.66659C8.49788 3.66659 3.74996 8.27117 3.74996 14.7749C3.74996 18.9674 7.24371 24.5216 14.5 31.1508C21.7562 24.5216 25.25 18.9674 25.25 14.7749ZM14.5 0.083252C22.025 0.083252 28.8333 5.85242 28.8333 14.7749C28.8333 20.7233 24.0495 27.7645 14.5 35.9166C4.95038 27.7645 0.166626 20.7233 0.166626 14.7749C0.166626 5.85242 6.97496 0.083252 14.5 0.083252Z" fill="black"/>
</svg>
