<svg xmlns="http://www.w3.org/2000/svg" viewBox="0 0 24 24" width="24" height="24"><path fill="none" d="M0 0h24v24H0V0z"/><path d="M12 2C6.48 2 2 6.48 2 12c0 4.39 2.82 8.11 6.75 9.45.49.14.67-.21.67-.48 0-.24-.01-.89-.01-1.75-2.47.54-3.47-.6-3.47-.6-.47-1.19-1.16-1.51-1.16-1.51-1-.68.08-.67.08-.67 1.09.08 1.66 1.12 1.66 1.12.97 1.66 2.54 1.18 3.16.9.1-.7.38-1.18.69-1.45-2.42-.27-4.95-1.21-4.95-5.39 0-1.19.43-2.17 1.13-2.93-.11-.28-.49-1.39.11-2.9 0 0 .92-.29 3 .97.87-.24 1.8-.36 2.72-.36s1.85.12 2.72.36c2.08-1.26 3-1 3-1 .6 1.51.22 2.62.11 2.9.71.76 1.13 1.74 1.13 2.93 0 4.19-2.54 5.12-4.96 5.39.39.34.74 1.01.74 2.04 0 1.47-.01 2.66-.01 3.02 0 .28.18.62.68.48C19.18 20.11 22 16.39 22 12c0-5.52-4.48-10-10-10z"/></svg>