<svg width="33" height="44" viewBox="0 0 33 44" fill="none" xmlns="http://www.w3.org/2000/svg">
<path d="M4.22601 43.5H5.29787C5.84231 43.5 6.16557 43.3179 6.45481 42.8711L7.40758 41.3649H25.5612L26.514 42.8711C26.8032 43.3179 27.1095 43.5 27.6539 43.5H28.6407C29.5765 43.5 30.0188 42.5897 29.5254 41.8118L26.2588 36.6644C30.206 36.5154 32.5369 33.8672 32.5369 30.0439V19.2525C32.5369 14.7009 32.0094 10.679 31.2949 7.79908C30.3761 3.72748 27.8241 1.34411 23.8939 0.864126C22.6008 0.715166 19.7085 0.5 16.5099 0.5C13.0391 0.5 10.419 0.715166 9.12597 0.864126C5.21281 1.34411 2.64373 3.72748 1.72499 7.79908C1.01041 10.679 0.5 14.5851 0.5 19.1201V30.0439C0.5 33.8507 2.79685 36.4823 6.693 36.6644L3.37532 41.8614C2.89894 42.6062 3.30727 43.5 4.22601 43.5ZM7.57771 33.9996C4.63434 33.9996 3.23921 32.2948 3.23921 29.8784V19.1201C3.23921 14.7009 3.76664 11.0431 4.43017 8.27906C5.0767 5.39915 6.79508 3.81024 9.50027 3.51232C10.7593 3.36336 13.2093 3.19784 16.5099 3.19784C19.5384 3.19784 22.2776 3.36336 23.5366 3.51232C26.2418 3.81024 27.9602 5.39915 28.6067 8.27906C29.2702 11.0431 29.7806 14.8168 29.7806 19.2525V29.8784C29.7806 32.2948 28.4025 33.9996 25.4592 33.9996H7.57771ZM12.1544 7.68322H20.8654C21.58 7.68322 22.0394 7.21978 22.0394 6.54119C22.0394 5.86259 21.58 5.39915 20.8654 5.39915H12.1544C11.4568 5.39915 10.9975 5.86259 10.9975 6.54119C10.9975 7.21978 11.4568 7.68322 12.1544 7.68322ZM16.5099 24.7144C20.7804 24.6978 24.013 24.5323 25.8164 24.3172C26.8883 24.1848 27.3647 23.4896 27.3647 22.5131V18.5574C27.3647 15.2968 26.9904 12.5493 26.7352 11.4238C26.565 10.6293 26.0376 10.0666 25.221 9.96728C23.3665 9.75212 21.2057 9.63626 16.5099 9.61971C11.8141 9.63626 9.65339 9.75212 7.76487 9.98383C6.96522 10.0666 6.45481 10.6293 6.28467 11.4238C6.02946 12.5493 5.67218 15.2968 5.67218 18.5574V22.5131C5.67218 23.4896 6.13155 24.1848 7.20341 24.3172C9.00687 24.5323 12.2395 24.6978 16.5099 24.7144ZM24.4894 31.5335C25.7994 31.5335 26.8373 30.5404 26.8373 29.2329C26.8373 27.9419 25.8164 26.9488 24.4894 26.9488C23.1283 26.9488 22.1074 27.9419 22.1074 29.2329C22.1074 30.5404 23.1283 31.5335 24.4894 31.5335ZM8.53048 31.5169C9.85756 31.5169 10.8784 30.557 10.8784 29.2329C10.8784 27.9253 9.89158 26.9654 8.53048 26.9654C7.1864 26.9654 6.1996 27.9253 6.1996 29.2329C6.1996 30.557 7.1864 31.5169 8.53048 31.5169ZM9.17701 38.6008L10.402 36.6809H22.5668L23.7748 38.6008H9.17701Z" fill="#49454F"/>
</svg>
